<?xml version="1.0" standalone="no"?>
<!DOCTYPE svg PUBLIC "-//W3C//DTD SVG 20010904//EN"
 "http://www.w3.org/TR/2001/REC-SVG-20010904/DTD/svg10.dtd">
<svg version="1.0" xmlns="http://www.w3.org/2000/svg"
 width="16.000000pt" height="16.000000pt" viewBox="0 0 16.000000 16.000000"
 preserveAspectRatio="xMidYMid meet">
<metadata>
Created by potrace 1.11, written by Peter Selinger 2001-2013
</metadata>
<g transform="translate(0.000000,16.000000) scale(0.001739,-0.001739)"
fill="#000000" stroke="none">
<path d="M65 4592 l0 -4029 4533 0 c2492 0 4532 3 4533 6 0 8 0 8011 0 8034
-1 16 -224 17 -4534 17 l-4532 0 0 -4028z m8785 3741 c1 -11 1 -7362 0 -7434
l0 -56 -4252 1 -4253 1 -1 3740 c0 2057 1 3743 3 3748 5 9 8503 9 8503 0z"/>
<path d="M4633 7508 c-6 -7 -43 -76 -83 -153 -70 -135 -125 -240 -215 -410
-23 -44 -70 -134 -105 -200 -34 -66 -75 -142 -90 -170 -15 -27 -62 -117 -105
-200 -43 -82 -92 -177 -110 -210 -18 -33 -63 -118 -100 -190 -37 -71 -80 -152
-95 -180 -15 -27 -54 -101 -86 -163 -32 -62 -77 -148 -99 -190 -22 -42 -76
-144 -119 -227 -43 -82 -91 -172 -106 -200 -15 -27 -60 -113 -100 -190 -40
-77 -90 -171 -110 -210 -21 -38 -63 -119 -95 -180 -32 -60 -80 -153 -108 -205
-27 -52 -72 -138 -100 -190 -27 -52 -71 -135 -97 -185 -26 -49 -70 -133 -97
-185 -28 -52 -73 -138 -100 -190 -97 -183 -141 -266 -218 -415 -43 -82 -82
-154 -86 -160 -30 -32 -13 -34 392 -32 l400 2 58 110 c31 61 101 196 155 300
55 105 126 242 159 305 33 63 85 165 115 225 31 61 57 112 60 115 5 7 2101 7
2112 0 5 -3 79 -149 165 -325 86 -176 202 -413 257 -527 l101 -206 408 0 c225
0 409 2 409 4 0 3 -62 127 -139 277 -76 150 -222 436 -323 637 -296 584 -509
1002 -683 1345 -174 342 -404 797 -688 1355 -96 190 -252 498 -347 685 -95
187 -173 341 -175 343 -1 1 -7 -3 -12 -10z m61 -1600 c88 -180 592 -1203 629
-1275 17 -34 28 -65 24 -69 -10 -10 -1477 -11 -1477 -1 0 8 34 74 258 507 41
80 111 215 155 300 44 85 108 209 142 275 34 66 93 180 130 253 37 72 70 132
74 132 3 0 33 -55 65 -122z"/>
</g>
</svg>
